<svg xmlns="http://www.w3.org/2000/svg" xmlns:xlink="http://www.w3.org/1999/xlink" width="2000" zoomAndPan="magnify" viewBox="0 0 1500 1499.999933" height="2000" preserveAspectRatio="xMidYMid meet" version="1.0"><defs><clipPath id="f4bf4a80c6"><path d="M 29.375 150 L 735 150 L 735 1101 L 29.375 1101 Z M 29.375 150 " clip-rule="nonzero"/></clipPath></defs><g clip-path="url(#f4bf4a80c6)"><path fill="#d99a9a" d="M 328.664062 711.769531 C 324.613281 714.652344 320.140625 716.300781 315.261719 716.300781 L 315.261719 719.515625 L 341.5 719.515625 L 341.5 716.300781 C 336.980469 716.300781 332.660156 714.640625 328.664062 711.769531 Z M 731.710938 692.097656 C 724.789062 623.960938 702.734375 567.46875 670.949219 523.523438 C 639.636719 480.214844 598.882812 449.066406 553.84375 430.925781 C 523.117188 418.558594 490.386719 412.226562 457.324219 412.226562 C 457.324219 411.878906 463.339844 410.753906 472.734375 408.046875 C 506.253906 398.394531 582.796875 368.617188 582.796875 281.921875 C 582.796875 212.539062 531.335938 177.011719 483.070312 162.9375 C 478.726562 161.671875 474.417969 160.582031 470.179688 159.652344 C 441.25 153.566406 370.488281 150.347656 315.238281 150.023438 C 312.152344 150.011719 309.097656 150 306.101562 150 L 217.613281 150 L 217.613281 153.230469 C 228.878906 153.230469 236.917969 159.664062 243.363281 170.917969 C 249.796875 183.785156 254.617188 201.484375 254.617188 224.003906 L 254.617188 463.722656 C 206.359375 479.808594 161.3125 508.761719 122.695312 547.378906 C 63.175781 608.511719 29.390625 692.167969 29.390625 775.820312 C 29.390625 861.089844 61.570312 941.527344 119.476562 1002.660156 C 182.214844 1067.015625 267.484375 1100.796875 365.621094 1100.796875 C 381.019531 1100.796875 396.558594 1099.71875 412.097656 1097.59375 C 416.140625 1097.046875 420.195312 1096.433594 424.234375 1095.722656 C 581.371094 1068.800781 734.046875 936.253906 734.046875 738.820312 C 734.046875 722.6875 733.242188 707.113281 731.710938 692.097656 Z M 306.101562 161.265625 C 308.746094 161.265625 319.28125 161.136719 333.9375 161.300781 C 352.996094 161.507812 379.023438 162.183594 403.738281 164.203125 C 429.242188 166.292969 453.351562 169.8125 466.972656 175.746094 C 508.796875 191.832031 531.328125 224.003906 531.328125 281.933594 C 531.328125 338.238281 502.363281 372.019531 462.144531 391.335938 C 444.90625 398.59375 424.085938 402.773438 403.726562 405.339844 C 387.976562 407.316406 372.507812 408.335938 359.175781 409.035156 L 306.089844 409.035156 L 306.089844 161.265625 Z M 413.515625 1094.539062 C 409.324219 1095.085938 405.074219 1095.5625 400.765625 1095.96875 C 389.453125 1097.023438 377.746094 1097.570312 365.621094 1097.570312 C 267.484375 1097.570312 183.828125 1063.785156 121.09375 999.433594 C 64.789062 939.925781 32.605469 861.089844 32.605469 775.820312 C 32.605469 693.78125 66.390625 610.117188 125.910156 550.59375 C 162.914062 511.980469 206.359375 484.628906 254.617188 468.542969 L 254.617188 645.515625 C 254.617188 669.648438 249.796875 687.335938 241.746094 700.214844 C 235.300781 709.867188 227.265625 716.300781 217.613281 716.300781 L 217.613281 719.515625 L 341.488281 719.515625 L 341.488281 716.300781 C 336.980469 716.300781 332.648438 714.640625 328.652344 711.769531 C 315.542969 702.375 306.089844 680.101562 306.089844 661.597656 L 306.089844 457.277344 C 318.957031 454.0625 331.835938 454.0625 346.308594 454.0625 L 346.308594 450.84375 C 331.835938 450.84375 318.957031 450.84375 306.089844 452.445312 L 306.089844 421.890625 L 373.65625 421.890625 C 383.644531 421.890625 393.679688 422.273438 403.726562 423.050781 C 411.566406 423.65625 419.402344 424.515625 427.21875 425.617188 C 456.859375 429.8125 486.183594 437.640625 513.8125 449.613281 C 608.046875 490.457031 682.550781 579.558594 682.550781 737.207031 C 682.5625 873.378906 615.757812 1068.011719 413.515625 1094.539062 Z M 413.515625 1094.539062 " fill-opacity="1" fill-rule="nonzero"/></g><path fill="#d99a9a" d="M 1514.039062 1446.066406 L 1514.039062 1449.28125 C 1441.640625 1475.03125 1367.636719 1476.632812 1298.464844 1463.765625 C 1150.457031 1434.8125 1049.105469 1351.144531 959.003906 1166.136719 C 869.03125 978.679688 870.296875 978.585938 812.007812 856.675781 C 802.378906 836.539062 791.128906 813.078125 777.574219 784.902344 C 779.363281 768.480469 780.199219 752.476562 780.199219 737.207031 C 780.199219 708.496094 777.722656 682.0625 773.113281 657.789062 C 785.75 680.042969 798.375 703.921875 811 730.144531 C 817.445312 743.382812 823.902344 756.691406 830.371094 770.082031 C 882.167969 877.117188 935.230469 988.808594 989.570312 1101.773438 L 1184.242188 617.523438 L 1185.84375 614.308594 L 1272.714844 614.308594 L 1272.714844 617.523438 C 1253.414062 617.523438 1237.316406 633.609375 1237.316406 652.925781 C 1237.316406 652.925781 1258.234375 1030.988281 1267.886719 1182.222656 C 1271.101562 1233.695312 1288.800781 1262.660156 1304.886719 1262.660156 L 1306.488281 1262.660156 L 1306.488281 1265.878906 L 1179.410156 1265.878906 L 1179.410156 1262.660156 C 1198.714844 1262.660156 1219.628906 1233.695312 1218.015625 1180.609375 L 1187.449219 646.488281 L 1187.449219 644.886719 L 996.019531 1116.257812 L 1034.621094 1196.695312 C 1105.40625 1344.699219 1201.929688 1434.800781 1306.511719 1457.320312 C 1372.46875 1471.800781 1435.207031 1470.1875 1514.039062 1446.066406 Z M 1514.039062 1446.066406 " fill-opacity="1" fill-rule="nonzero"/></svg>