<svg xmlns="http://www.w3.org/2000/svg" xmlns:xlink="http://www.w3.org/1999/xlink" width="2000" zoomAndPan="magnify" viewBox="0 0 1500 1499.999933" height="2000" preserveAspectRatio="xMidYMid meet" version="1.0"><defs><g/><clipPath id="0ed2e8078c"><rect x="0" width="1020" y="0" height="363"/></clipPath></defs><g transform="matrix(1, 0, 0, 1, 279, 520)"><g clip-path="url(#0ed2e8078c)"><g fill="#1c2120" fill-opacity="1"><g transform="translate(1.114539, 272.608904)"><g><path d="M 184.84375 -95.8125 C 186.507812 -79.375 184.835938 -64.003906 179.828125 -49.703125 C 174.828125 -35.398438 167.378906 -23.660156 157.484375 -14.484375 C 147.597656 -5.304688 136.097656 0 122.984375 1.4375 C 114.878906 2.382812 106.953125 1.488281 99.203125 -1.25 C 91.460938 -3.988281 84.140625 -7.984375 77.234375 -13.234375 L 77.234375 -7.515625 C 77.234375 -5.367188 76.515625 -3.578125 75.078125 -2.140625 C 73.648438 -0.710938 71.863281 0 69.71875 0 L 8.9375 0 L 8.9375 -2.140625 C 12.988281 -2.859375 16.441406 -4.882812 19.296875 -8.21875 C 22.160156 -11.5625 23.59375 -15.378906 23.59375 -19.671875 L 23.59375 -221.671875 C 23.59375 -225.960938 22.160156 -229.773438 19.296875 -233.109375 C 16.441406 -236.441406 12.988281 -238.46875 8.9375 -239.1875 L 8.9375 -241.328125 L 70.078125 -250.265625 C 70.316406 -250.265625 70.492188 -250.265625 70.609375 -250.265625 C 70.734375 -250.265625 70.914062 -250.265625 71.15625 -250.265625 C 75.207031 -250.265625 77.234375 -248.125 77.234375 -243.84375 L 77.234375 -171.609375 C 84.859375 -175.660156 93.4375 -178.164062 102.96875 -179.125 C 116.082031 -180.550781 128.597656 -177.6875 140.515625 -170.53125 C 152.429688 -163.382812 162.378906 -153.316406 170.359375 -140.328125 C 178.347656 -127.335938 183.175781 -112.5 184.84375 -95.8125 Z M 89.390625 -13.234375 C 97.253906 -13.234375 104.398438 -16.804688 110.828125 -23.953125 C 117.265625 -31.109375 122.390625 -40.703125 126.203125 -52.734375 C 130.015625 -64.773438 131.921875 -78.0625 131.921875 -92.59375 C 131.921875 -107.375 130.015625 -120.722656 126.203125 -132.640625 C 122.390625 -144.554688 117.265625 -154.085938 110.828125 -161.234375 C 104.398438 -168.390625 97.253906 -171.96875 89.390625 -171.96875 C 85.566406 -171.96875 81.515625 -171.015625 77.234375 -169.109375 L 77.234375 -16.09375 C 81.515625 -14.1875 85.566406 -13.234375 89.390625 -13.234375 Z M 89.390625 -13.234375 "/></g></g></g><g fill="#1c2120" fill-opacity="1"><g transform="translate(176.307553, 272.608904)"><g><path d="M 143.015625 -175.546875 L 210.9375 -175.546875 L 210.9375 -173.40625 C 204.507812 -172.6875 198.078125 -170.359375 191.640625 -166.421875 C 185.203125 -162.492188 179.359375 -157.726562 174.109375 -152.125 C 168.867188 -146.53125 164.820312 -140.753906 161.96875 -134.796875 L 86.171875 23.953125 C 82.828125 31.335938 81.332031 38.84375 81.6875 46.46875 C 82.050781 54.101562 84.140625 60.957031 87.953125 67.03125 C 91.765625 73.113281 96.890625 77.820312 103.328125 81.15625 C 108.097656 83.300781 113.222656 84.375 118.703125 84.375 C 122.753906 84.375 124.78125 82.226562 124.78125 77.9375 C 124.78125 74.84375 123.410156 71.925781 120.671875 69.1875 C 117.929688 66.445312 115.128906 63.285156 112.265625 59.703125 C 109.398438 56.128906 107.96875 51.601562 107.96875 46.125 C 107.96875 38.5 110.707031 31.941406 116.1875 26.453125 C 121.675781 20.972656 128.113281 18.234375 135.5 18.234375 C 143.132812 18.234375 149.691406 20.972656 155.171875 26.453125 C 160.648438 31.941406 163.390625 38.5 163.390625 46.125 C 163.390625 52.789062 161.484375 59.046875 157.671875 64.890625 C 153.859375 70.734375 148.851562 75.5625 142.65625 79.375 C 136.457031 83.1875 129.78125 85.507812 122.625 86.34375 C 115.476562 87.175781 108.6875 86.046875 102.25 82.953125 C 95.34375 79.609375 89.921875 74.660156 85.984375 68.109375 C 82.054688 61.554688 79.910156 54.347656 79.546875 46.484375 C 79.191406 38.617188 80.800781 30.867188 84.375 23.234375 L 95.453125 0 L 19.3125 -159.8125 C 17.632812 -163.15625 15.128906 -166.195312 11.796875 -168.9375 C 8.460938 -171.675781 5.125 -173.164062 1.78125 -173.40625 L 1.78125 -175.546875 L 62.921875 -175.546875 C 69.117188 -175.546875 73.410156 -173.160156 75.796875 -168.390625 L 125.84375 -63.640625 L 161.96875 -139.4375 C 163.394531 -142.769531 164.109375 -146.226562 164.109375 -149.8125 C 164.109375 -156 162.082031 -161.359375 158.03125 -165.890625 C 153.976562 -170.421875 148.972656 -172.925781 143.015625 -173.40625 Z M 143.015625 -175.546875 "/></g></g></g><g fill="#1c2120" fill-opacity="1"><g transform="translate(379.512169, 268.417187)"><g><path d="M 262.609375 -105.75 L 262.609375 -30.71875 C 262.609375 -19.050781 263.738281 -11.550781 266 -8.21875 C 268.257812 -4.882812 269.863281 -3.21875 270.8125 -3.21875 L 270.8125 0 L 229.375 0 L 229.375 -3.21875 C 230.5625 -3.21875 232.226562 -4.882812 234.375 -8.21875 C 236.519531 -11.550781 237.59375 -19.050781 237.59375 -30.71875 L 237.59375 -105.75 C 237.59375 -110.039062 237.351562 -115.160156 236.875 -121.109375 C 236.394531 -127.066406 235.378906 -133.082031 233.828125 -139.15625 C 232.285156 -145.226562 230.023438 -150.585938 227.046875 -155.234375 C 224.078125 -159.878906 220.085938 -163.035156 215.078125 -164.703125 C 208.410156 -167.085938 202.039062 -166.492188 195.96875 -162.921875 C 189.894531 -159.347656 184.59375 -154.582031 180.0625 -148.625 C 175.539062 -142.675781 171.96875 -136.960938 169.34375 -131.484375 C 164.101562 -120.285156 159.9375 -106.347656 156.84375 -89.671875 C 153.75 -73.003906 152.203125 -53.351562 152.203125 -30.71875 C 152.203125 -19.050781 153.332031 -11.550781 155.59375 -8.21875 C 157.851562 -4.882812 159.460938 -3.21875 160.421875 -3.21875 L 160.421875 0 L 118.96875 0 L 118.96875 -3.21875 C 120.164062 -3.21875 121.832031 -4.882812 123.96875 -8.21875 C 126.113281 -11.550781 127.1875 -19.050781 127.1875 -30.71875 L 127.1875 -105.75 C 127.1875 -110.039062 126.945312 -115.160156 126.46875 -121.109375 C 126 -127.066406 124.988281 -133.082031 123.4375 -139.15625 C 121.894531 -145.226562 119.632812 -150.585938 116.65625 -155.234375 C 113.675781 -159.878906 109.6875 -163.035156 104.6875 -164.703125 C 98.007812 -167.085938 91.632812 -166.492188 85.5625 -162.921875 C 79.488281 -159.347656 74.1875 -154.582031 69.65625 -148.625 C 65.132812 -142.675781 61.566406 -136.960938 58.953125 -131.484375 C 53.710938 -120.285156 49.539062 -106.347656 46.4375 -89.671875 C 43.34375 -73.003906 41.796875 -53.351562 41.796875 -30.71875 C 41.796875 -19.050781 42.925781 -11.550781 45.1875 -8.21875 C 47.457031 -4.882812 49.066406 -3.21875 50.015625 -3.21875 L 50.015625 0 L 8.9375 0 L 8.9375 -3.21875 C 10.125 -3.21875 11.789062 -4.882812 13.9375 -8.21875 C 16.082031 -11.550781 17.15625 -19.050781 17.15625 -30.71875 L 17.15625 -141.484375 C 17.15625 -153.148438 16.082031 -160.648438 13.9375 -163.984375 C 11.789062 -167.328125 10.125 -169 8.9375 -169 L 8.9375 -172.203125 L 41.796875 -172.203125 L 41.796875 -79.671875 C 43.460938 -90.628906 45.488281 -100.515625 47.875 -109.328125 C 50.257812 -118.140625 53 -126 56.09375 -132.90625 C 59.1875 -139.570312 63.054688 -146 67.703125 -152.1875 C 72.347656 -158.382812 77.765625 -163.507812 83.953125 -167.5625 C 90.148438 -171.613281 97.179688 -173.640625 105.046875 -173.640625 C 114.804688 -173.640625 122.78125 -171.671875 128.96875 -167.734375 C 135.164062 -163.804688 139.929688 -158.507812 143.265625 -151.84375 C 146.597656 -145.175781 148.921875 -137.851562 150.234375 -129.875 C 151.546875 -121.894531 152.203125 -113.851562 152.203125 -105.75 L 152.203125 -79.671875 C 153.628906 -90.628906 155.59375 -100.515625 158.09375 -109.328125 C 160.59375 -118.140625 163.394531 -126 166.5 -132.90625 C 169.59375 -139.570312 173.398438 -146 177.921875 -152.1875 C 182.453125 -158.382812 187.875 -163.507812 194.1875 -167.5625 C 200.5 -171.613281 207.582031 -173.640625 215.4375 -173.640625 C 228.539062 -173.640625 238.425781 -170.242188 245.09375 -163.453125 C 251.757812 -156.671875 256.34375 -148.035156 258.84375 -137.546875 C 261.351562 -127.066406 262.609375 -116.46875 262.609375 -105.75 Z M 262.609375 -105.75 "/></g></g></g><g fill="#1c2120" fill-opacity="1"><g transform="translate(650.332084, 268.417187)"><g><path d="M 12.140625 -65.375 C 8.097656 -80.863281 8.160156 -95.988281 12.328125 -110.75 C 16.492188 -125.519531 23.9375 -138.441406 34.65625 -149.515625 C 45.375 -160.597656 58.472656 -168.160156 73.953125 -172.203125 C 89.671875 -176.492188 104.914062 -176.554688 119.6875 -172.390625 C 134.457031 -168.222656 147.378906 -160.78125 158.453125 -150.0625 C 169.523438 -139.34375 177.085938 -126.125 181.140625 -110.40625 C 185.429688 -94.914062 185.429688 -79.785156 181.140625 -65.015625 C 176.847656 -50.253906 169.34375 -37.394531 158.625 -26.4375 C 147.914062 -15.476562 134.816406 -7.859375 119.328125 -3.578125 C 103.847656 0.472656 88.664062 0.476562 73.78125 -3.5625 C 58.894531 -7.613281 45.972656 -15.054688 35.015625 -25.890625 C 24.054688 -36.734375 16.429688 -49.894531 12.140625 -65.375 Z M 156.84375 -103.96875 C 154.46875 -112.539062 150.773438 -121.289062 145.765625 -130.21875 C 140.765625 -139.15625 134.628906 -147.078125 127.359375 -153.984375 C 120.097656 -160.890625 112 -165.890625 103.0625 -168.984375 C 94.132812 -172.085938 84.671875 -172.328125 74.671875 -169.703125 C 64.671875 -167.085938 56.628906 -162.144531 50.546875 -154.875 C 44.472656 -147.613281 40.007812 -139.21875 37.15625 -129.6875 C 34.300781 -120.164062 32.875 -110.28125 32.875 -100.03125 C 32.875 -89.789062 34.0625 -80.382812 36.4375 -71.8125 C 38.820312 -63.238281 42.515625 -54.484375 47.515625 -45.546875 C 52.515625 -36.617188 58.644531 -28.703125 65.90625 -21.796875 C 73.175781 -14.890625 81.273438 -9.828125 90.203125 -6.609375 C 99.140625 -3.390625 108.613281 -3.210938 118.625 -6.078125 C 128.625 -8.691406 136.71875 -13.628906 142.90625 -20.890625 C 149.101562 -28.160156 153.570312 -36.554688 156.3125 -46.078125 C 159.050781 -55.609375 160.421875 -65.492188 160.421875 -75.734375 C 160.421875 -85.984375 159.226562 -95.394531 156.84375 -103.96875 Z M 156.84375 -103.96875 "/></g></g></g><g fill="#1c2120" fill-opacity="1"><g transform="translate(834.689766, 268.417187)"><g><path d="M 12.140625 -63.234375 C 8.097656 -78.722656 8.160156 -93.847656 12.328125 -108.609375 C 16.492188 -123.378906 23.9375 -136.300781 34.65625 -147.375 C 45.375 -158.445312 58.472656 -166.007812 73.953125 -170.0625 C 90.390625 -174.59375 105.875 -174.710938 120.40625 -170.421875 C 134.9375 -166.128906 147.378906 -159.039062 157.734375 -149.15625 C 168.097656 -139.28125 175.1875 -128.03125 179 -115.40625 C 170.425781 -115.40625 161.195312 -115.046875 151.3125 -114.328125 C 141.425781 -113.617188 132.429688 -112.3125 124.328125 -110.40625 C 133.378906 -110.632812 141.300781 -108.601562 148.09375 -104.3125 C 154.882812 -100.03125 160.300781 -94.316406 164.34375 -87.171875 C 168.394531 -80.023438 170.660156 -72.285156 171.140625 -63.953125 C 172.085938 -51.085938 169.460938 -39.953125 163.265625 -30.546875 C 157.078125 -21.140625 148.679688 -13.753906 138.078125 -8.390625 C 127.484375 -3.035156 115.875 0.0546875 103.25 0.890625 C 90.625 1.722656 78.117188 0 65.734375 -4.28125 C 53.347656 -8.570312 42.390625 -15.539062 32.859375 -25.1875 C 23.335938 -34.832031 16.429688 -47.515625 12.140625 -63.234375 Z M 33.234375 -88.96875 C 33.941406 -82.289062 35.007812 -75.859375 36.4375 -69.671875 C 41.207031 -52.523438 48.113281 -39.066406 57.15625 -29.296875 C 66.207031 -19.535156 76.210938 -12.925781 87.171875 -9.46875 C 98.128906 -6.007812 109.023438 -5.234375 119.859375 -7.140625 C 130.703125 -9.046875 140.289062 -13.09375 148.625 -19.28125 C 156.96875 -25.476562 162.925781 -33.398438 166.5 -43.046875 C 170.070312 -52.691406 170.070312 -63.472656 166.5 -75.390625 C 163.875 -84.203125 159.226562 -91.582031 152.5625 -97.53125 C 145.894531 -103.488281 137.675781 -106.882812 127.90625 -107.71875 C 118.144531 -108.550781 107.304688 -105.515625 95.390625 -98.609375 C 86.816406 -93.609375 78.421875 -90.09375 70.203125 -88.0625 C 61.984375 -86.039062 54.421875 -85.269531 47.515625 -85.75 C 45.140625 -85.988281 42.695312 -86.34375 40.1875 -86.8125 C 37.6875 -87.289062 35.367188 -88.007812 33.234375 -88.96875 Z M 151.484375 -117.1875 C 146.960938 -127.425781 140.890625 -136.953125 133.265625 -145.765625 C 125.640625 -154.578125 116.882812 -161.1875 107 -165.59375 C 97.113281 -170 86.335938 -170.65625 74.671875 -167.5625 C 63.953125 -164.707031 55.4375 -159.289062 49.125 -151.3125 C 42.8125 -143.332031 38.460938 -134.039062 36.078125 -123.4375 C 33.703125 -112.84375 32.753906 -102.304688 33.234375 -91.828125 C 37.273438 -89.921875 42.035156 -88.726562 47.515625 -88.25 C 54.179688 -88.007812 61.503906 -88.84375 69.484375 -90.75 C 77.460938 -92.65625 85.625 -95.988281 93.96875 -100.75 C 103.726562 -106.46875 113.726562 -110.515625 123.96875 -112.890625 C 134.21875 -115.273438 143.390625 -116.707031 151.484375 -117.1875 Z M 151.484375 -117.1875 "/></g></g></g></g></g></svg>